<svg xmlns="http://www.w3.org/2000/svg" width="23.486" height="23.486" viewBox="0 0 23.486 23.486"><path d="M20.323,0H3.167A3.165,3.165,0,0,0,0,3.165V20.321a3.165,3.165,0,0,0,3.165,3.165h8.461l.014-8.393H9.462a.514.514,0,0,1-.514-.512l-.01-2.705a.514.514,0,0,1,.514-.516h2.176V8.745c0-3.034,1.853-4.685,4.559-4.685h2.221a.515.515,0,0,1,.514.514V6.856a.515.515,0,0,1-.514.514H17.045c-1.472,0-1.757.7-1.757,1.726v2.263h3.234a.514.514,0,0,1,.511.575l-.321,2.705a.515.515,0,0,1-.511.454H15.3l-.014,8.393h5.035a3.165,3.165,0,0,0,3.165-3.165V3.165A3.165,3.165,0,0,0,20.323,0Z" transform="translate(-0.002)" fill="#fff" opacity="0.5"/></svg>