<svg xmlns="http://www.w3.org/2000/svg" width="297.709" height="64.725" viewBox="0 0 297.709 64.725"><g transform="translate(-2.792 -76.071)" opacity="0.5"><path d="M2.792,139.8V133.59H6.244c1.725,0,5.178-.345,5.178-4.487V91.825c0-2.244-.173-7.594-4.487-7.594H2.965l4.487-7.939h265.5v7.939H28.681c-2.244,0-5.178.517-5.178,5v11.736c.519,1.38,2.589,1.9,3.625,1.9S31.787,102.7,31.787,97h5.178v19.158H31.787c0-1.727-1.906-4.618-4.486-4.833-2.072-.172-3.8.517-3.8,3.28v14.5c0,1.555,1.9,4.487,6.386,4.487H33V139.8H2.792Z" transform="translate(0 0.131)" fill="#fff" fill-rule="evenodd"/><path d="M139.469,93.335c0,1.381,1.725,2.761,2.759,3.106,1.209-.862,7.6-4.486,12.6-4.486s7.592,2.587,7.592,6.558V117.5H150.339V102.829c0-1.9-.516-3.28-2.244-3.452s-6.212,3.452-7.419,5.178v26.232c0,2.417,2.416,4.142,4.487,4.142v5.006H124.109v-5.178c2.07,0,4.314-.691,4.487-3.8v-29.17c0-.862-1.381-3.28-4.487-3.28V93.335Zm144.487,0H262.9v5.178c3.1,0,4.484,2.416,4.484,3.28v29.167c-.17,3.106-2.416,3.8-4.484,3.8v5.178h21.053v-5.006c-2.07,0-4.487-1.725-4.487-4.142v-28.65c0-2.07,2.244-3.623,4.487-3.623Zm-191.085,0c0,1.381,1.725,2.761,2.761,3.106,1.208-.862,7.594-4.486,12.6-4.486s7.594,2.587,7.594,6.558V117.5H103.744V102.829c0-1.9-.519-3.28-2.244-3.452s-6.214,3.452-7.422,5.178v26.232c0,2.417,2.417,4.142,4.487,4.142v5.006H77.512v-5.178c2.07,0,4.314-.691,4.487-3.8v-29.17c0-.862-1.381-3.28-4.487-3.28V93.335Zm140,0c0,1.381,1.728,2.761,2.762,3.106,1.209-.862,7.592-4.486,12.6-4.486s7.592,2.587,7.592,6.558V117.5H243.743V102.829c0-1.9-.519-3.28-2.244-3.452s-6.212,3.452-7.422,5.178v26.232c0,2.417,2.416,4.142,4.487,4.142v5.006H217.509v-5.178c2.073,0,4.317-.691,4.487-3.8v-29.17c0-.862-1.38-3.28-4.487-3.28V93.335ZM68.4,125.436H56.317V130.1c0,1.9-.345,5.869-6.041,5.869s-7.42-3.8-7.42-6.559v-9.837a2.06,2.06,0,0,1,1.9-2.072H68.4V104.9c0-5.7-1.208-7.422-3.625-9.837S53.9,91.955,50.1,91.955c-9.664,0-12.772,1.38-15.533,3.623s-3.8,6.9-3.8,10.355v19.5c0,5.176,1.036,8.8,4.314,12.081s13.289,3.28,15.361,3.28,8.973.172,13.979-3.451S68.4,125.436,68.4,125.436Zm-25.542-21.4c0-2.761.862-6.9,6.9-6.9s6.558,4.487,6.558,6.9v6.212a2.1,2.1,0,0,1-2.07,2.07h-9.32a2.072,2.072,0,0,1-2.07-1.9v-6.386Zm163.955,26.75V104.9c0-3.97-.173-8.111-4.317-11.045s-10.872-2.761-13.461-2.761-11.217,0-15.189,4.487-3.28,8.8-3.28,10.526h11.306s.773-5.867,2.328-7.42,5.7-3.28,8.889-.519a4.772,4.772,0,0,1,1.637,3.8v7.42a1.835,1.835,0,0,1-1.552,1.727s-15.708.345-18.467,2.417-5.178,3.451-5.178,11.045,1.9,10.526,4.144,12.081,3.28,3.28,13.461,3.28H211.3v-5.006c-2.069,0-4.484-1.725-4.484-4.142Zm-12.083,2.934a1.391,1.391,0,0,1-1.206,1.034h-5.955c-4.23,0-5.436-3.623-5.436-5.869v-6.645c0-6.47,6.73-6.3,9.4-6.3s3.192,2.242,3.192,3.709V133.72Zm77.908-49.445c6.042,0,10.937-1.836,10.937-4.1s-4.895-4.1-10.937-4.1-10.94,1.836-10.94,4.1S266.6,84.276,272.637,84.276Z" transform="translate(16.545 0)" fill="#fff" fill-rule="evenodd"/></g></svg>