<svg xmlns="http://www.w3.org/2000/svg" width="23.486" height="23.486" viewBox="0 0 23.486 23.486"><g opacity="0.5"><path d="M16.49,0H7A7,7,0,0,0,0,7V16.49a7,7,0,0,0,7,7H16.49a7,7,0,0,0,7-7V7A7,7,0,0,0,16.49,0Zm4.634,16.49a4.634,4.634,0,0,1-4.634,4.634H7A4.634,4.634,0,0,1,2.363,16.49V7A4.634,4.634,0,0,1,7,2.363H16.49A4.634,4.634,0,0,1,21.124,7V16.49Z" fill="#fff"/><path d="M139.074,133a6.074,6.074,0,1,0,6.074,6.074A6.081,6.081,0,0,0,139.074,133Zm0,9.786a3.712,3.712,0,1,1,3.712-3.712A3.712,3.712,0,0,1,139.074,142.786Z" transform="translate(-127.331 -127.331)" fill="#fff"/><ellipse cx="1.456" cy="1.456" rx="1.456" ry="1.456" transform="translate(16.374 4.259)" fill="#fff"/></g></svg>