<svg xmlns="http://www.w3.org/2000/svg" width="81.957" height="81.957" viewBox="0 0 81.957 81.957"><defs><style>.a{fill:#e32119;}</style></defs><path class="a" d="M75.381,53.8a46.532,46.532,0,0,1-14.613-2.328,6.679,6.679,0,0,0-6.5,1.37l-9.215,6.957c-10.687-5.7-17.27-12.286-22.9-22.892l6.752-8.975a6.624,6.624,0,0,0,1.63-6.712A46.6,46.6,0,0,1,28.2,6.577,6.584,6.584,0,0,0,21.627,0H6.576A6.584,6.584,0,0,0,0,6.576,75.466,75.466,0,0,0,75.381,81.957a6.584,6.584,0,0,0,6.576-6.576V60.372A6.584,6.584,0,0,0,75.381,53.8Z"/></svg>