<svg xmlns="http://www.w3.org/2000/svg" width="81.136" height="65.923" viewBox="0 0 81.136 65.923"><defs><style>.a{fill:#e32119;}</style></defs><g transform="translate(0 0)"><path class="a" d="M81.136,55.8a34.68,34.68,0,0,1-9.584,2.627,16.54,16.54,0,0,0,7.317-9.194,33.242,33.242,0,0,1-10.548,4.026A16.632,16.632,0,0,0,39.549,64.638a17.128,17.128,0,0,0,.385,3.793,47.082,47.082,0,0,1-34.285-17.4,16.638,16.638,0,0,0,5.112,22.231,16.427,16.427,0,0,1-7.515-2.049V71.4A16.71,16.71,0,0,0,16.572,87.742a16.6,16.6,0,0,1-4.361.548,14.707,14.707,0,0,1-3.149-.284A16.792,16.792,0,0,0,24.6,99.593a33.422,33.422,0,0,1-20.624,7.094A31.158,31.158,0,0,1,0,106.459a46.828,46.828,0,0,0,25.517,7.465c30.609,0,47.343-25.355,47.343-47.333,0-.735-.025-1.445-.061-2.15A33.183,33.183,0,0,0,81.136,55.8Z" transform="translate(0 -48)"/></g></svg>