<svg xmlns="http://www.w3.org/2000/svg" width="23.486" height="23.486" viewBox="0 0 23.486 23.486"><g opacity="0.5"><path d="M11.743,23.486A11.743,11.743,0,0,1,3.44,3.44,11.743,11.743,0,1,1,20.047,20.047,11.666,11.666,0,0,1,11.743,23.486ZM5.256,16.98h0a7.983,7.983,0,0,0,12.288-6.727c0-.121,0-.243-.008-.363a5.656,5.656,0,0,0,1.4-1.453,5.618,5.618,0,0,1-1.613.442,2.814,2.814,0,0,0,1.235-1.553,5.61,5.61,0,0,1-1.783.681,2.81,2.81,0,0,0-4.784,2.561A7.994,7.994,0,0,1,6.207,7.637a2.808,2.808,0,0,0,.869,3.748A2.81,2.81,0,0,1,5.8,11.033v.035A2.813,2.813,0,0,0,8.056,13.82a2.779,2.779,0,0,1-.739.1,2.846,2.846,0,0,1-.528-.05A2.806,2.806,0,0,0,9.41,15.818a5.6,5.6,0,0,1-3.487,1.2A5.664,5.664,0,0,1,5.256,16.98Z" fill="#fff"/></g></svg>