<svg xmlns="http://www.w3.org/2000/svg" width="120" height="161.29" viewBox="0 0 120 161.29">
  <g id="ferrari-ges" transform="translate(-31.407 -8.504)">
    <path id="Caminho_28" data-name="Caminho 28" d="M151.407,22.207v3L91.4,15l-60,10.214v-3l60-10.281Z" transform="translate(0 -0.352)" fill="#fff" fill-rule="evenodd"/>
    <path id="Caminho_29" data-name="Caminho 29" d="M151.407,18.783v3.072l-60-10.281-60,10.281V18.783L91.4,8.5Z" transform="translate(0 0)" fill="#33a457" fill-rule="evenodd"/>
    <path id="Caminho_30" data-name="Caminho 30" d="M151.407,25.564,91.4,15.35l-60,10.214V35.928l.52-.286c.211-.115,21.5-11.58,59.592-11.58s59.135,11.468,59.348,11.582l.514.287Z" transform="translate(0 -0.705)" fill="#cc2131" fill-rule="evenodd"/>
    <path id="Caminho_31" data-name="Caminho 31" d="M91.751,27.295c34.433,0,54.6,9.65,57.864,11.342V69.257a113.093,113.093,0,0,1-11.73,49.438c-17.034,35.2-42.664,49.016-46.249,50.819-3.588-1.8-29.238-15.623-46.267-50.819A113.091,113.091,0,0,1,33.64,69.257V38.64C36.937,36.95,57.312,27.295,91.751,27.295Z" transform="translate(-0.23 -1.936)" fill="#fff22d" fill-rule="evenodd"/>
    <path id="Caminho_32" data-name="Caminho 32" d="M31.929,36.937l-.52.293V69.047A114.986,114.986,0,0,0,43.33,119.333c18.57,38.406,47.361,51.841,47.649,51.972l.427.194.426-.194c.291-.132,29.058-13.57,47.627-51.972a114.941,114.941,0,0,0,11.926-50.287V37.233l-.514-.294c-.212-.117-21.255-11.878-59.349-11.878S32.14,36.819,31.929,36.937Zm59.593-9.821c34.4,0,54.54,9.642,57.8,11.333v30.6a113.031,113.031,0,0,1-11.718,49.4c-17.016,35.169-42.621,48.979-46.2,50.781-3.584-1.8-29.208-15.611-46.22-50.781a113.03,113.03,0,0,1-11.717-49.4V38.453c3.294-1.689,23.648-11.337,58.052-11.337Z" transform="translate(0 -1.705)" fill-rule="evenodd"/>
    <path id="Caminho_33" data-name="Caminho 33" d="M102.776,144.676c.971.671.266,1.836-.452,2.018-.748.2-1.388-.627-1.75.283a3.981,3.981,0,0,0,4.138,4.193c3.537,0,5.224-4.541,5.557-5.224s.55-1.552.215-1.552a2.115,2.115,0,0,0-2,.921,1.869,1.869,0,0,1,.654-1.555,2.428,2.428,0,0,1,1.772-.414c.632,0,.533-.471.915-1.4.871-2.193,1.47-2.292,2.036-3.292.469-.814-.417-1.134-2.165-1.3a13.534,13.534,0,0,0-3.476.018A2.374,2.374,0,0,0,106.162,139c-.261.65.217,1.291,1.136,1.125a4.907,4.907,0,0,0,1.8-.866,2.855,2.855,0,0,1-1.783,1.983c-1.27.312-2.77-.454-2.568-1.739a3.959,3.959,0,0,1,3.518-3.3,13.938,13.938,0,0,1,6.077.361,14.572,14.572,0,0,0,4.974.084,21.891,21.891,0,0,0,6.058-1.083,12.076,12.076,0,0,1-4.022,2c-2.337.638-4.42.373-5.095.638a6.245,6.245,0,0,0-1.948,2.549c-.583,1.136-1.2,2.444-.936,2.444a5.921,5.921,0,0,0,2.968-.393,3.043,3.043,0,0,1-1.465,1.38,6.526,6.526,0,0,1-1.938.291s-.548,1.388-1.165,2.64a8.987,8.987,0,0,1-3.472,4.173c-1.84.965-5.358,2.169-7.573-1.018-2.344-3.343-.2-7.146,2.047-5.6Zm-27.2.436a1.171,1.171,0,0,1-1.02,1.684c-.536,0-1.2-.4-1.341.272s1.422,4.088,5.026,4.088,5.277-2.086,5.023-3.956c-.283-2.086-3.6-2.915-6.239-4.3-1.293-.678-4.214-1.132-4.214-3.867,0-5.839,8.887-2.11,8.887-2.11s.019-.73.432-.764c.2-.019.6-.1.736.562s.719,4.173.719,4.173a8.478,8.478,0,0,0-4.89-3.836c-.634-.222-3.407-.75-3.391,1.445.033,1.3,1.622,1.888,4.376,2.957C83.3,142.874,85.152,144.2,84.3,148c-.814,3.653-4.385,4.254-6.122,4.254s-5.721-1.215-5.721-5.224c0-2.835,2.781-2.768,3.121-1.919Zm18.988-21.957,1.459.692a2.122,2.122,0,0,0,1.572.1,3.366,3.366,0,0,0,1.142-1.619.768.768,0,0,0-.116-.72,21.19,21.19,0,0,1-1.946-5.433,19.076,19.076,0,0,1,.16-3.707,11.378,11.378,0,0,0,.125-2.106c-.1-.292-.536-.575-1.039-.893l-.8-.542a1.61,1.61,0,0,1-.466-1.328l-.084-.788c-.185-.734-3.919-4.548-4.5-4.583-.839-.055-1.057.866-1.11,1.419a19.952,19.952,0,0,0,.678,3.052l.372,1.546c.382,2.43,2.965,6.71,4.067,8.536l.523.888c.226.515.138.921-.264,1.149s-3.748-.126-5.351-.5a17.313,17.313,0,0,1-2.369-.838,10.045,10.045,0,0,0-2.371-.772,2.088,2.088,0,0,0-1.119.195l-.364.1-.362-.116a10.218,10.218,0,0,0-3.547-.761c-3.309-.31-3.557.355-3.692.715-.164.457,1.859,2.608,2.22,2.9a4.8,4.8,0,0,0,2.857.787,24.479,24.479,0,0,1,2.942-.335l.341.208.317.224a21.622,21.622,0,0,0,2.7.248c.645.035,2.338.386,3.576.645l1.383.279a19.109,19.109,0,0,1,3.065,1.356Z" transform="translate(-2.237 -6.009)" fill-rule="evenodd"/>
    <path id="Caminho_34" data-name="Caminho 34" d="M127.424,73.115c-.074-.091-.135-.1-.173-.086s-.083.045-.1.152a3.175,3.175,0,0,1-1.1,1.821,3.875,3.875,0,0,0-1.761,2.245c-.179.41-.353.8-.491.806-.059,0-.125-.059-.2-.192-.573-.988-.252-2.5.005-3.718l.059-.3a10.163,10.163,0,0,1,2.13-3.329l.318-.382a5.634,5.634,0,0,0,.52-2.832.052.052,0,0,0-.061.026.116.116,0,0,0-.028.032l-.011,0v.011a.207.207,0,0,0-.079.14c-.128.646-1.309,1.958-3.325,3.7a10.526,10.526,0,0,0-1.27,1.524,4.084,4.084,0,0,1-.617.753,6.523,6.523,0,0,1,.834-4.926l.2-.374a10.882,10.882,0,0,1,3.073-4.1.151.151,0,0,0-.024-.185c-.084-.065-.239-.037-.482.085l-.133.066a9.644,9.644,0,0,0-4.494,4.209,12.987,12.987,0,0,0-1.412,5.778,6.037,6.037,0,0,0,.274,2,59.189,59.189,0,0,1,1.638,5.922,45.793,45.793,0,0,1,.193,5.287c0,.844,0,1.435,0,1.458-.005,0-.44,1.4-.44,1.4a6.808,6.808,0,0,1-2,2.938,9.8,9.8,0,0,1-3.825,2.432,3.5,3.5,0,0,1-1.566-.075c0-2.1-3.6-6.994-5.443-8.608a38.166,38.166,0,0,0-5.935-4.382c-2.6-1.582-5.491-8.216-5.524-8.28l-.25-.9s-.14-1.79-.178-2.255c.094.054.217.13.217.13l.886.516,1.018.391,1.333.262s.741.382.741.382l.687.447,1.068.771,1.1.577c.022.006,1.318.073,1.318.073l.03-.107s-1.5-.7-1.5-.7c0-.022-.54-.945-.54-.945l-.629-.905c-.021-.014-.78-.467-.78-.467q-.482-.073-.965-.136c0-.008-.189-.17-.287-.258.084-.049.243-.148.243-.148s1.033.131,1.037.131.919.636.919.636l1,.773c.016.008.95.37.95.37l.123.048-.41-1.067q-.384-.368-.774-.731l-1.137-.967c-.009-.008-.893-.464-.893-.464s-.953-.32-.953-.32-1-.639-1-.639.011-.068.018-.126c.126.048,1.382.553,1.382.553s1.2.327,1.2.327,1,.384,1,.384,1.443.7,1.443.7,1.211.266,1.211.266c.021,0,1.478-.26,1.478-.26.019-.009,1.408-.976,1.408-.976.016-.026.272-.6.272-.6l.055-.133-.447.185s-1.261.639-1.263.639l-.871.195s-.983-.2-.985-.2h0c0-.012-.8-.753-.8-.753l-1.132-1.1-1.023-.524c-.014-.006-1.211-.2-1.211-.2s-.728-.373-.741-.379c0,0,.005-.013.005-.032,0-.088-.022-.28-.031-.37l1.505.126,1.649-.133s.928.194.928.194l.939.387.962.13.173.023-1.072-1.025c-.011-.005-1.081-.779-1.081-.779s-.9-.33-.9-.33c-.016,0-1.491-.128-1.52-.131.013,0,.014-.026.014-.063a2.679,2.679,0,0,0-.022-.283l.7-.118s1.116.256,1.116.256,1.057.638,1.057.638l1.142.39c.033,0,1.668-.256,1.668-.256l.1-.013-.5-.658c-.028-.022-.849-.277-.851-.277s-.678-.506-.678-.506l-1.011-.71c-.014-.008-.769-.265-.769-.265s-1.2-.195-1.206-.2-.585-.551-.6-.56a1.086,1.086,0,0,0,.068-.276l.629.176.809.386,1.149.364-.254-.507-.447-.466-.391-.5.17-.042c0,.015,1.223.639,1.223.639l.953.325c0,.005.736.7.736.7s1.4.795,1.4.795l.14.079-.254-.68c-.007-.015-.762-.981-.762-.981l-.629-1.087c-.005-.013-1.144-1.171-1.144-1.171s-1.459-.785-1.463-.785-.552-.631-.552-.631q-.506-.515-1.011-1.032c0-.014-.1-.367-.156-.546.171.055.981.324.981.324l1.134.32s.809.507.809.507.675.824.675.824c.024.019,1.1.471,1.1.471l2.739.355.16.02-.752-.791c-.019-.014-1.47-.659-1.47-.659L106,57.561c0-.012-.487-.885-.487-.885l-.508-.9c-.009-.013-.829-.786-.829-.786s-1.022-.588-1.022-.588l-1-.831c0-.008-.24-.506-.394-.838l.693.668,1.325,1.16c.016.01,1.027.461,1.027.461l.866.7,1.006,1.026c.035.016,1.607.238,1.607.238l.2.029-1.6-1.382c0-.025-.361-1.133-.361-1.133q-.414-.4-.836-.8l-.434-.51c0-.013-.432-1.331-.432-1.331q-.446-.464-.9-.921c0-.007-1.441-1.352-1.445-1.357v0c0-.021-.051-.226-.081-.361.11.056.261.135.261.135l1.323.771c.013.006,1.588.457,1.588.457l1.643.389,1.9.3-.447-.9c-.031-.029-.976-.414-.976-.414l-.876-.511c-.009,0-1.079-.455-1.079-.455l-.943-.386c0-.009-.612-.8-.953-1.234.327.22.832.563.832.563.024.008.849.074.849.074h2.588c0,.007,1.048.573,1.048.575s.893.967.893.967l.118.126-.109-1.087c-.011-.031-.579-.741-.579-.741-.016-.013-1.533-.85-1.533-.85l-1.206-.454c-.009,0-1.825-.324-1.834-.324v0c0-.017-.347-.431-.347-.431s-1.329-1.227-1.329-1.227q-.321-.168-.643-.331s-.2-.211-.327-.342h.68c0,.011,1.042.637,1.042.637s1.4.455,1.4.455l1.775.259h0c0,.019.658.756.658.756l.96.589q.546.1,1.093.195l.152.024-2.246-2.752c-.014-.013-1.088-.592-1.088-.592s-1.268-.392-1.268-.392-1.109-1.271-1.109-1.271-1.4-.849-1.4-.849q-.5-.127-1.009-.246c.063-.1.272-.446.272-.448s1.112-.492,1.112-.492,1.625-.318,1.625-.318a2.554,2.554,0,0,0,.167-.426,6.307,6.307,0,0,0-.715-.516q-.416-.135-.832-.266a5.07,5.07,0,0,0-.491.266c0-.008-1.36.054-1.36.054s-1.625-.383-1.625-.385-1.675-1.4-1.675-1.4q-.384-.2-.771-.393c-.019,0-2.785-.327-2.792-.327,0-.035-.65-1.006-.65-1.006l-.89-.972c0-.005-1.133-1.024-1.133-1.024l-.035.074-.379.838c0-.008-.373.571-.373.571v.014c0,.107.053.666.053.666.016.035.382.41.39.421-.019,0-.138.583-.138.588,0-.04-1.518.022-1.52.022s-1.237-.575-1.237-.575-.956-.327-.956-.327c-.019-.006-2.225.062-2.225.062a7.15,7.15,0,0,0-.422.6l-.05.076.971.14s.144.1.223.146l-.248.2c0-.013-1.35-.074-1.35-.074-.022,0-.972.388-.972.388l-.1.042.471.317c.03.011,2.047.074,2.047.074l1.5.386v0c0,.021.285.428.285.428s.2.286.279.4l-.641.353c.008,0-1.823.771-1.823.771L82.1,41.779s-2.492.368-2.492.368c-.019.006-.974.538-.974.538-.021.014-.788,1.077-.788,1.077s-.442,1.337-.442,1.337c-.034,2.248.056,2.3.088,2.318a1.4,1.4,0,0,0,1.226.145,11.523,11.523,0,0,1,2.418-.748c.312-.064.458.048.484.164s-.06.3-.293.362l-.131.039c-1.1.3-2.222.66-2.185,1.084l.194.324a3.959,3.959,0,0,0,2.443.035l.707-.2a5.069,5.069,0,0,1,1.9-.327,3.244,3.244,0,0,1,1,.354,4.652,4.652,0,0,0,1.857.552,7.294,7.294,0,0,1,2.382.453,2.333,2.333,0,0,1-.027,1.372l-.071.4c-.384,3.481-4.271,7.417-6.144,9.305a8,8,0,0,0-.912.989l-.215.5a1.58,1.58,0,0,1-.924,1.1,15.406,15.406,0,0,0-2.074,1.433c-1.342,1-3.006,2.246-3.464,2.192-.767-.091-4.349-2.556-4.5-2.708-3.488-3.375-4.948-2.683-5.822-2.27l-.138.065c-1.041.474-2.133,3.421-2.232,4.054L62.548,67.9l-.324,1.334c-.1.451-.526,1.56-.936,2.631L60.447,74.2a14.175,14.175,0,0,1-.751,1.912l-.372.909c-.259,1.067-.264,6.908.187,7.424l.02.022.089.026c.453-.047,1.425-1.049,1.892-1.532l.108-.112a3.794,3.794,0,0,0,.814-1.9,7.767,7.767,0,0,0-.284-1.6,10.4,10.4,0,0,1-.278-4.647l.046-.393a2.746,2.746,0,0,1,.841-1.3l.5-.582a1.745,1.745,0,0,1,.857-.6l.449-.257.07-.073a3.861,3.861,0,0,0,1.016-1.477l.427-1.847.093-.493a.2.2,0,0,1,.155-.171.631.631,0,0,1,.532.241l3.087,3.583A7.322,7.322,0,0,1,71.552,73v.015s-.019,0-.019,0a19.2,19.2,0,0,1-2.969-.522c-2.956-.867-4.3-.714-5.345.588-1.186,1.492-.813,6.06-.57,6.561.222.454,1.3,6.02,1.353,6.762a5.552,5.552,0,0,0,.624,2.327l.081.083A5.111,5.111,0,0,1,66.2,91.086c.183,1.035,2.382,3.807,3.22,4.055a.413.413,0,0,0,.37-.072c.64-.454.93-2.672.965-3.609a3.248,3.248,0,0,0-.823-2.335l-.17-.236a2.286,2.286,0,0,0-1.284-.716c-.162-.046-.385-.1-.385-.15,0-.017-.045-1.727-.59-2.057a5.173,5.173,0,0,1-.91-2.538,10.505,10.505,0,0,0-.614-2.79,5.5,5.5,0,0,1-.463-2.831.637.637,0,0,1,.582-.57,1.132,1.132,0,0,1,.946.252,21.518,21.518,0,0,0,4.33,2.608,10.157,10.157,0,0,1,2.317,1.659,8.865,8.865,0,0,0,1.33,1.009A8.909,8.909,0,0,0,77.475,83a6.127,6.127,0,0,1,1.058.06c-.371.149-.367.8-.336,1.01.379,2.694,10.179,10.093,10.937,10.508a29.852,29.852,0,0,1,4.3,4.2,2.259,2.259,0,0,1,.509,1.291,2.207,2.207,0,0,0,.581,1.68,2.06,2.06,0,0,0,1.47.761c.438,0,.73-.393.946-.676l.046-.059A6.5,6.5,0,0,0,98.55,98.1c.119-1.818.95-2.54,1.221-2.588.121-.022.21.014.242.094s-.007.221-.171.329a4.051,4.051,0,0,0-.829,1.908c0,.007-.091.878-.091.878a2.922,2.922,0,0,1-.7,2.1,12.042,12.042,0,0,0-2.377,6.547c-.175,1.847.657,4.507,2.47,7.9l.126.242.491.823a10,10,0,0,1,1.286,2.434,2.87,2.87,0,0,1-.849,1.729,48.4,48.4,0,0,1-4.158,4.625,1.466,1.466,0,0,0-1.189.445l-.511.389a1.7,1.7,0,0,0-.752.958,1.017,1.017,0,0,1-.395.566l-.195.131c-.04.035-.15.189-1.368,1.408a5.286,5.286,0,0,0-1.8,4.5c.069.485.487.655,1.727.711s4.076-1.929,4.2-2.575l.044-.247c.109-.583.291-1.566.612-1.708a7.272,7.272,0,0,0,1.538-1.493l.094-.1a1.788,1.788,0,0,0,.384-.881,1.757,1.757,0,0,1,.248-.657,1.2,1.2,0,0,1,.482-.324,2.077,2.077,0,0,0,1.193-1.268c.34-.841,2.369-2.3,3.851-3.357a10.837,10.837,0,0,0,1.493-1.158,2.243,2.243,0,0,0,.314-1.261,2.3,2.3,0,0,0-.552-1.634,7.822,7.822,0,0,1-1.25-2.563v-.011c0-.2-.019-.571-.049-1.259a.843.843,0,0,1,0-.094c0-1.82,2.705-3.6,3.873-4.367l.533-.368c4.235-3.735,5.064-6.575,5.221-7.354l.086-.934c.026-.647.048-1.263.438-1.344a.712.712,0,0,1,.561.277.552.552,0,0,1,.131.546c-.193.524-.257,5.79-.259,6.009.014.037.456.557.456.557l.081.094.024-.123c.005-.061.248-1.5.248-2a8.99,8.99,0,0,1,1.134-3.042.1.1,0,0,0,.014.028,8.042,8.042,0,0,1,.243,2.042,3.878,3.878,0,0,1-.548,2.288,11.961,11.961,0,0,0-1.468,2.847l-.3.7a.776.776,0,0,0-.044.3,6.214,6.214,0,0,0,.57,2.355c.059.063.107.063.14.051.074-.028.14-.123.14-.682a5.416,5.416,0,0,1,1.81-3.684c1.577-1.251,1.92-3.572,1.92-5.34a13.81,13.81,0,0,0-.2-2.388q-.374-.555-.757-1.1c.037.018.242-.151.31-.205.068.088.787,1.041.787,1.041a2.577,2.577,0,0,1,.428.86,10.261,10.261,0,0,0,.289,2.395l.03.13a26.037,26.037,0,0,0,.95,2.526l.084.2.026-.213a7.828,7.828,0,0,0,0-1.816,6.056,6.056,0,0,1,.109-1.659l.144-1.421a4.5,4.5,0,0,0-.577-2.547l-.21-.318a1.029,1.029,0,0,1-.154-.283l.154-.066a9.333,9.333,0,0,0,5.512-4.941,11.468,11.468,0,0,0,.7-4.08,20.7,20.7,0,0,0-.508-4.914,7,7,0,0,1-.1-2.822l.1-1.732a4.982,4.982,0,0,1,1.228-2.915l.72-1.116a2,2,0,0,0,.031-1.975Z" transform="translate(-1.075 -2.528)" fill-rule="evenodd"/>
    <path id="Caminho_35" data-name="Caminho 35" d="M93.509,36.028c.056,0,.763-.333.763-.333a4.382,4.382,0,0,0-.133-.734q-.766-.909-1.54-1.811l-.076-.089-.026.111-.165.726c0-.007-.489,1.164-.489,1.164l-.022.049,1.032.527Z" transform="translate(-4.588 -2.53)" fill-rule="evenodd"/>
    <path id="Caminho_36" data-name="Caminho 36" d="M90.553,41.2a.912.912,0,0,0,.643-.07c.357-.168.568-.455.477-.66l-.164-.148a.885.885,0,0,0-.638.072c-.306.136-.5.363-.5.556a.293.293,0,0,0,.022.1Zm6.161-2.543.294.159a.375.375,0,0,0,.25.206.424.424,0,0,0,.359-.09.277.277,0,0,0,.048-.324.729.729,0,0,0-.606-.509c-.353,0-.675.04-.675.3C96.385,38.543,96.553,38.6,96.714,38.653Zm.353,1.04a.344.344,0,0,0-.158.373l.028.114c.035.135.048.162.171.177l.224.04a.85.85,0,0,0,.844-.335c.035-.074.063-.219-.133-.355A.9.9,0,0,0,97.067,39.693Zm.918,3.993c-.083-.039-.048-.17.016-.361.051-.155.1-.3.018-.386s-.195-.062-.406.017c-.762.274-.879,1.051-.963,1.619l-.026.175c-.044.253.086.339.167.368a.93.93,0,0,0,.844-.327c.119-.2.778-.376,1.258-.507l.184-.05c.222-.061.336-.146.353-.262.024-.152-.144-.29-.292-.379a.775.775,0,0,0-.559.039A1.024,1.024,0,0,1,97.984,43.685Zm-8.059.292a.5.5,0,0,0,.384-.2,1.335,1.335,0,0,0,.02-1.341,1.259,1.259,0,0,0-1.016-.743l.005,0-.087-.012-.734.057a1.161,1.161,0,0,0-.834.654.351.351,0,0,0,.079.37A3.672,3.672,0,0,0,89.926,43.977Zm-7.225-.59c.088.216.491.24,1.082.065l.13-.039L84.972,43l1.535-1.009c.045-.035.446-.336.363-.529-.058-.126-.258-.1-.4-.077a5.171,5.171,0,0,0-1.281.5l-.624.29-.275.113c-.95.393-1.729.745-1.586,1.106ZM79.473,44.51a.669.669,0,0,0-.579.327L78.751,45a1.454,1.454,0,0,0-.291,1.108c.013.161.058.454.217.547.3.187.449.056.76-.239l.24-.206a1.585,1.585,0,0,0,.7-.991.564.564,0,0,0-.128-.46,1.085,1.085,0,0,0-.779-.246Zm1.765.141a.178.178,0,0,0-.175.039c-.092.091-.055.284-.026.44l.018.109-.019.065a.192.192,0,0,0,0,.187c.039.06.135.086.3.086.207,0,.228-.02.3-.2l.056-.143a.385.385,0,0,0,0-.328.642.642,0,0,0-.454-.249Zm1.707,2.766a.422.422,0,0,0,0-.842.421.421,0,0,0,0,.842Zm7.69-1.026a.331.331,0,0,0-.32.12A14.787,14.787,0,0,1,89,47.467l-.654.465-.053.051a.216.216,0,0,0-.069.284l.08.112.172-.035.255-.094.367-.057a1.736,1.736,0,0,0,.944-.292l.243-.4.361-.58c.173-.191.182-.322.158-.4a.22.22,0,0,0-.17-.136Zm.76,2.345a.333.333,0,0,0,.167.328.444.444,0,0,0,.535-.191l.47-.409a3.627,3.627,0,0,0,.791-.71c.233-.3.133-.485.049-.564a.56.56,0,0,0-.6-.1l-.135.092a2.937,2.937,0,0,0-1.219,1.248A.949.949,0,0,0,91.395,48.735Zm3.062-.231a.317.317,0,0,0-.384-.138l-.331.251a2.6,2.6,0,0,1-.776.5c-.612.164-1.441.438-1.493.858v.055a.268.268,0,0,0,.1.223c.232.189.8.077,1.2-.077a4.206,4.206,0,0,0,1.5-.961c.3-.275.289-.551.179-.713Zm-2.379,4.835-.2-.022c-.515.137-1.394,1.651-2.011,2.78l-.11.2-1.85,3.471-.58,1.105a.282.282,0,0,0,.055.344.332.332,0,0,0,.437.019,9.849,9.849,0,0,0,1.956-2.2l.7-.959a8.225,8.225,0,0,0,1.251-2.009l.1-.267c.706-1.831.816-2.111.251-2.457Zm6.955-6.673a.4.4,0,1,0,.285.112A.4.4,0,0,0,99.034,46.666ZM98.839,48.3a.4.4,0,0,0,.41.393.393.393,0,1,0,0-.786A.4.4,0,0,0,98.839,48.3Zm.377.869a.383.383,0,1,0,.469.372A.432.432,0,0,0,99.216,49.17ZM99.2,50.257a.425.425,0,1,0,.526.414A.481.481,0,0,0,99.2,50.257Zm.019,1.38c-.324,0-.592.193-.592.436s.268.432.592.432.588-.193.588-.432S99.541,51.637,99.216,51.637Zm-.2,2.312c.368-.032.638-.234.617-.467l-.116-.212a.807.807,0,0,0-.571-.14c-.355.032-.618.224-.618.444l0,.022.119.211a.779.779,0,0,0,.567.142Zm-.8,1.154,0-.011Zm.783.3c.412-.061.7-.287.669-.52l-.121-.194a.928.928,0,0,0-.664-.116c-.4.057-.7.287-.669.52l.125.193A.924.924,0,0,0,99,55.4Zm-.693.7c0,.254.309.457.713.457s.708-.2.708-.457-.3-.454-.708-.454S98.3,55.848,98.3,56.1Zm1.261,1.485c0-.269-.368-.475-.838-.475s-.832.205-.832.475.368.476.832.476S99.563,57.854,99.563,57.587Zm-.535,1.253a.63.63,0,1,0-.608.476A.556.556,0,0,0,99.028,58.84Zm-.287,1.567a.661.661,0,1,0-.652.537A.6.6,0,0,0,98.741,60.407Zm-.529,1.525a.534.534,0,0,0-1.062,0,.534.534,0,0,0,1.062,0Zm-.917.9a.476.476,0,1,0,.508.476A.5.5,0,0,0,97.3,62.834Zm-.432,2.288a.425.425,0,1,0,0-.824.424.424,0,1,0,0,.824Zm-.487,1c.266,0,.485-.155.485-.351s-.215-.349-.485-.349-.491.153-.491.349S96.1,66.124,96.376,66.124Zm-.473.963c.254,0,.469-.157.469-.352s-.215-.35-.469-.35-.467.157-.467.35S95.642,67.088,95.9,67.088Zm-13.83-.853.084.016.639-.115a12.469,12.469,0,0,1,2.471-.344,6.892,6.892,0,0,1,2.2.445c.549.183.823.262.927.149.065-.074.025-.183-.011-.259-.165-.356-.888-1.527-3.247-1.581a3.935,3.935,0,0,0-3.05,1.448c-.053.09-.067.156-.04.205l.022.036Zm8.773,4.435a.527.527,0,0,0,.2-.509c-.05-.954-.306-1.063-.832-1.063a.987.987,0,0,0-.919.814c0,.261.192.49.564.676a1.12,1.12,0,0,0,.983.082Zm7.238,11.667c.761.355,1.028.482,1.142.517,0,0,.007.011.007.011s.005,0,.005-.006c.053.016.07.01.083-.008-.007-.005-.037-.05-.053-.063a.1.1,0,0,0,.018-.026.423.423,0,0,1-.051-.024c-.5-.635-3.533-4.943-4.178-7.779a1.576,1.576,0,0,0-.526-1.076.786.786,0,0,0-.65-.015h0a.213.213,0,0,0-.133.142.689.689,0,0,0-.033.248,15.017,15.017,0,0,0,1.432,4.374c1.95,3.165,2.9,3.686,2.939,3.707Zm24.768,1.232-.116.022c0,.018.03.864.03,1.95a22.525,22.525,0,0,1-.329,4.646,17.349,17.349,0,0,1-2.066,3.418s-.958,1.437-.958,1.439a.309.309,0,0,0-.04.158.429.429,0,0,0,.2.359c.1.066.443.237.927-.34l.612-.647a8.987,8.987,0,0,0,2.546-4.057C124.438,88.067,122.865,83.61,122.852,83.568ZM97.333,91.55a.3.3,0,0,0,.318.049A.524.524,0,0,0,98,91.147a2.1,2.1,0,0,1,.561-1.07.968.968,0,0,0-.061-1.342l-.406-.162a.776.776,0,0,0-.466.224q-.2.978-.4,1.957v0C97.19,90.861,97.155,91.379,97.333,91.55Zm13.213,7.224-.021-.009-.021.009a.926.926,0,0,0-.454.5.721.721,0,0,0,.154.579l.114.213.049.426.077.627a.3.3,0,0,0,.3.213.458.458,0,0,0,.406-.377,6.1,6.1,0,0,0,.123-1.4C111.278,99.009,110.577,98.781,110.546,98.774Zm-20.507-5.1c-.046-.053-4.89-5.309-5.936-6.686-1.067-1.411-1.576-1.518-2.1-1.229a.274.274,0,0,0-.137.214c-.075.573,1.135,1.96,2.194,2.978,1.481,1.425,5.856,4.776,5.9,4.809l.077-.086ZM71.054,78.159a10.218,10.218,0,0,0-2.7-.954l-.045.1L70.2,78.729c.31.255,1.682,1.106,2.125.758a.222.222,0,0,0,.088-.187C72.395,79.045,71.919,78.7,71.054,78.159Zm-.46-8.042.133-.057c.17-.191-.221-.734-.7-1.172a2.065,2.065,0,0,0-1.091-.637l-.129.056a.175.175,0,0,0-.039.12,2.129,2.129,0,0,0,.733,1.053A2.075,2.075,0,0,0,70.594,70.118Zm5.036-.686-.193.012A4.908,4.908,0,0,0,74.025,71.7a7.431,7.431,0,0,0-.573,2.285c0,.259.056.435.179.487l.19-.012A4.994,4.994,0,0,0,75.236,72.2a7.455,7.455,0,0,0,.57-2.287c0-.257-.053-.434-.177-.483Zm-9.065-5.744c-.473,0-.849.224-.849.508s.377.5.849.5.853-.222.853-.5S67.044,63.687,66.564,63.687Zm-3.015,6.276.147-.013a3.6,3.6,0,0,0,.934-1.688c.309-.923.477-1.914.179-2.02l-.144.015a3.559,3.559,0,0,0-.935,1.688c-.314.924-.473,1.915-.18,2.018Zm.789,4.775c.251-.336.3-.715.115-.857l-.217-.047a.921.921,0,0,0-.559.4c-.251.336-.3.714-.116.853l.218.051a.947.947,0,0,0,.559-.4Zm-.289,5.229-.021-.013-.094-.01c-.339.079-.1,1.555.074,2.332a4.843,4.843,0,0,0,.818,2.105l.02.014.092.01c.344-.079.1-1.563-.074-2.332A4.759,4.759,0,0,0,64.05,79.968ZM60.634,81.95a.452.452,0,1,0,.5.456A.48.48,0,0,0,60.634,81.95Zm8.392,10.717a.562.562,0,1,0,.579.566.574.574,0,0,0-.579-.566ZM97.4,107.6c.018.028.07.121.149.112l.033,0,.061-.091.52-1.586.406-1.057.347-.8c.107-.27.107-.45,0-.555-.167-.152-.511-.022-.553-.007s-.978,1.608-.978,1.608a1.952,1.952,0,0,0-.256,1.058A3.035,3.035,0,0,0,97.4,107.6Zm2.373,7.922.019-.16c.013-.094.3-2.3-.38-3.152a.827.827,0,0,0-.585-.327.4.4,0,0,0-.421.169c-.414.676,1.209,3.224,1.281,3.334Zm3.8,4.2a.582.582,0,1,0,0,1.164.582.582,0,1,0,0-1.164Zm-8.944-7.1a.487.487,0,1,0,0,.972.487.487,0,1,0,0-.972Zm6.518,8.6-.063-.014a9.159,9.159,0,0,0-2.472,2.041c-.088.093-2.25,2.311-1.964,2.6l.016.018.07.014a9.116,9.116,0,0,0,2.469-2.039c.093-.094,2.259-2.3,1.964-2.6Zm-6.492,5.995a1.267,1.267,0,0,0-.715.421c-.3.3-.52.718-.359.89l.011.011-.011-.011.16.057a1.235,1.235,0,0,0,.719-.422c.294-.3.52-.713.353-.886Zm-2.848,4.1a1.708,1.708,0,0,0-1.258,1.285.255.255,0,0,0,.075.2l.2.077a1.329,1.329,0,0,0,.808-.456c.4-.406.557-.841.377-1.03ZM76.915,110.644c-.427,0-.774.243-.774.55s.348.54.774.54.774-.235.774-.54S77.345,110.644,76.915,110.644Zm6.306.441c-.3,0-.539.163-.539.379s.236.368.539.368.535-.167.535-.368S83.513,111.085,83.221,111.085Zm7.7,2.575.047-.072c.087-.362-1.729-.928-2.7-1.174a7.065,7.065,0,0,0-2.856-.353l-.022.014-.049.075c-.088.366,1.727.925,2.7,1.179a7.139,7.139,0,0,0,2.86.342Z" transform="translate(-1.28 -1.509)" fill="#fff" fill-rule="evenodd"/>
  </g>
</svg>
