<svg xmlns="http://www.w3.org/2000/svg" width="79.014" height="68.976" viewBox="0 0 79.014 68.976"><defs><style>.a{fill:#e32119;}</style></defs><path class="a" d="M75.827,65.981A10.15,10.15,0,0,1,74,59.993c0-.012,0-.025,0-.037A34.5,34.5,0,0,0,27.651,27.565a10.169,10.169,0,0,1-6.242.3A16.842,16.842,0,0,0,3.187,53.931a10.148,10.148,0,0,1,1.832,5.988v.037A34.5,34.5,0,0,0,51.364,92.347a10.169,10.169,0,0,1,6.242-.3A16.842,16.842,0,0,0,75.827,65.981ZM40.77,53.773c6.954,1.654,17.462,4.153,17.462,15.728a12.612,12.612,0,0,1-7.907,12.248c-3.639,1.567-7.757,1.779-11.306,1.779-10.905,0-17.793-8.48-18.081-8.841a5.188,5.188,0,0,1,8.112-6.469c.016.019,4.135,4.75,9.969,4.935,7.026.223,8.631-1.867,8.838-3.652.254-2.179-1.685-3.779-9.488-5.635-6.614-1.573-16.611-3.95-16.611-14.611,0-3.32,1.35-14.151,18.725-14.151,10.971,0,17.446,8.638,17.717,9.005a5.187,5.187,0,0,1-8.335,6.178,15.582,15.582,0,0,0-9.382-4.808c-4.2-.4-8.35,1.116-8.35,3.354C32.133,51.2,33.324,52,40.77,53.773Z" transform="translate(0 -25.468)"/></svg>