<svg xmlns="http://www.w3.org/2000/svg" width="23.486" height="16.444" viewBox="0 0 23.486 16.444"><g transform="translate(0)" opacity="0.5"><path d="M11.743,16.444c-.073,0-7.354-.006-9.189-.5a2.943,2.943,0,0,1-2.07-2.07A31.024,31.024,0,0,1,0,8.222,31.135,31.135,0,0,1,.484,2.573,3.008,3.008,0,0,1,2.554.483C4.371.006,11.67,0,11.743,0s7.372.006,9.189.5A2.94,2.94,0,0,1,23,2.573a29.6,29.6,0,0,1,.484,5.668A31.2,31.2,0,0,1,23,13.891a2.944,2.944,0,0,1-2.071,2.07C19.115,16.438,11.817,16.444,11.743,16.444Zm-2.586-12V12l6.566-3.782Z" fill="#fff"/></g></svg>